<?xml version="1.0" encoding="UTF-8" standalone="no"?>
<svg
   xmlns:dc="http://purl.org/dc/elements/1.1/"
   xmlns:cc="http://creativecommons.org/ns#"
   xmlns:rdf="http://www.w3.org/1999/02/22-rdf-syntax-ns#"
   xmlns:svg="http://www.w3.org/2000/svg"
   xmlns="http://www.w3.org/2000/svg"
   xmlns:sodipodi="http://sodipodi.sourceforge.net/DTD/sodipodi-0.dtd"
   xmlns:inkscape="http://www.inkscape.org/namespaces/inkscape"
   width="236.34616"
   height="51.212948"
   viewBox="0 0 62.533258 13.550093"
   version="1.1"
   id="svg8"
   inkscape:version="1.0.1 (3bc2e813f5, 2020-09-07)"
   sodipodi:docname="logo.svg">
  <defs
     id="defs2">
    <rect
       x="21.860516"
       y="99.341896"
       width="174.6227"
       height="53.590076"
       id="rect1404" />
  </defs>
  <sodipodi:namedview
     id="base"
     pagecolor="#ffffff"
     bordercolor="#666666"
     borderopacity="1.0"
     inkscape:pageopacity="0.0"
     inkscape:pageshadow="2"
     inkscape:zoom="3.114422"
     inkscape:cx="87.994395"
     inkscape:cy="20.203291"
     inkscape:document-units="px"
     inkscape:current-layer="layer1"
     inkscape:document-rotation="0"
     showgrid="false"
     inkscape:window-width="1920"
     inkscape:window-height="1055"
     inkscape:window-x="0"
     inkscape:window-y="25"
     inkscape:window-maximized="1"
     units="px"
     fit-margin-top="0"
     fit-margin-left="0"
     fit-margin-right="0"
     fit-margin-bottom="0">
    <inkscape:grid
       type="xygrid"
       id="grid1453"
       originx="-46.506165"
       originy="-114.40682" />
  </sodipodi:namedview>
  <metadata
     id="metadata5">
    <rdf:RDF>
      <cc:Work
         rdf:about="">
        <dc:format>image/svg+xml</dc:format>
        <dc:type
           rdf:resource="http://purl.org/dc/dcmitype/StillImage" />
        <dc:title />
      </cc:Work>
    </rdf:RDF>
  </metadata>
  <g
     inkscape:label="Layer 1"
     inkscape:groupmode="layer"
     id="layer1"
     transform="translate(-46.506164,-114.40682)">
    <g
       id="g851"
       transform="matrix(1.3550093,0,0,1.3550093,5.1783805,102.21174)">
      <path
         d="m 36.9,13.2 c -0.2,-0.2 -1.8,-0.6 -3.1,-0.9 0,1 0,2.1 0.2,2.3 0.2,0.2 1.8,0.6 3.1,0.9 0,-1 0,-2.1 -0.2,-2.3"
         class="st0"
         id="Fill-12" />
      <path
         d="m 38.9,15.8 c -0.6,0 -1.2,-0.1 -1.8,-0.3 0,0.9 -0.1,1.7 -0.2,1.8 -0.3,0.1 -4.5,-0.9 -4.8,-1.2 -0.3,-0.4 -0.3,-3.8 0,-4.1 0.6,0 1.2,0.1 1.8,0.3 0,-0.9 0.1,-1.7 0.2,-1.8 0.3,-0.1 4.5,0.9 4.8,1.2 0.2,0.5 0.2,3.9 0,4.1 M 35.5,9 c -2.8,0 -5,2.3 -5,5 0,2.7 2.3,5 5,5 2.7,0 5,-2.3 5,-5 0,-2.7 -2.2,-5 -5,-5"
         class="st0"
         id="Fill-14" />
    </g>
    <g
       aria-label="olympus"
       id="text21"
       style="font-style:normal;font-weight:normal;font-size:10.5833px;line-height:1.25;font-family:sans-serif;fill:#000000;fill-opacity:1;stroke:none;stroke-width:0.264583">
      <path
         d="m 64.970644,124.10815 q -0.804331,0 -1.449912,-0.35983 -0.645582,-0.37041 -1.015997,-1.016 -0.370416,-0.64558 -0.370416,-1.46049 0,-0.81492 0.370416,-1.4605 0.370415,-0.64558 1.015997,-1.00541 0.645581,-0.35983 1.449912,-0.35983 0.80433,0 1.449912,0.35983 0.645581,0.35983 1.005413,1.00541 0.370416,0.64558 0.370416,1.4605 0,0.81491 -0.370416,1.46049 -0.359832,0.64559 -1.005413,1.016 -0.645582,0.35983 -1.449912,0.35983 z m 0,-0.66674 q 0.592665,0 1.05833,-0.26459 0.476248,-0.27516 0.740831,-0.77258 0.264582,-0.49741 0.264582,-1.13241 0,-0.635 -0.264582,-1.13241 -0.264583,-0.49742 -0.740831,-0.762 -0.465665,-0.27517 -1.05833,-0.27517 -0.592665,0 -1.068914,0.27517 -0.465665,0.26458 -0.740831,0.762 -0.264582,0.49741 -0.264582,1.13241 0,0.635 0.264582,1.13241 0.275166,0.49742 0.740831,0.77258 0.476249,0.26459 1.068914,0.26459 z"
         style="font-style:normal;font-variant:normal;font-weight:bold;font-stretch:normal;font-family:'Montserrat Alternates';-inkscape-font-specification:'Montserrat Alternates';stroke-width:0.264583"
         id="path14" />
      <path
         d="m 70.89728,124.10815 q -0.751414,0 -1.164163,-0.42333 -0.402165,-0.42333 -0.402165,-1.17474 v -6.30765 h 0.751414 v 6.24415 q 0,0.49741 0.232833,0.76199 0.232832,0.254 0.698497,0.254 0.296333,0 0.507999,-0.0952 l 0.05292,0.62442 q -0.328082,0.11641 -0.677331,0.11641 z"
         style="font-style:normal;font-variant:normal;font-weight:bold;font-stretch:normal;font-family:'Montserrat Alternates';-inkscape-font-specification:'Montserrat Alternates';stroke-width:0.264583"
         id="path16" />
      <path
         d="m 77.617656,118.48842 v 4.88949 q 0,1.41816 -0.645582,2.09549 -0.645581,0.68791 -1.947327,0.68791 -0.730248,0 -1.386412,-0.23283 -0.645581,-0.22225 -1.047747,-0.62441 l 0.380999,-0.5715 q 0.359832,0.35983 0.888997,0.56091 0.529165,0.20109 1.132413,0.20109 0.96308,0 1.418162,-0.49742 0.455082,-0.48683 0.455082,-1.52399 v -0.64559 q -0.296332,0.48684 -0.814914,0.75142 -0.507998,0.26458 -1.153579,0.26458 -1.09008,0 -1.725078,-0.60325 -0.624415,-0.61383 -0.624415,-1.78857 v -2.96333 h 0.751414 v 2.88924 q 0,0.87842 0.433916,1.3335 0.433915,0.45508 1.238246,0.45508 0.878413,0 1.386412,-0.52917 0.507998,-0.53974 0.507998,-1.49224 v -2.65641 z"
         style="font-style:normal;font-variant:normal;font-weight:bold;font-stretch:normal;font-family:'Montserrat Alternates';-inkscape-font-specification:'Montserrat Alternates';stroke-width:0.264583"
         id="path18" />
      <path
         d="m 86.666359,118.44609 q 1.047747,0 1.640412,0.60325 0.603248,0.60324 0.603248,1.77799 v 3.22791 h -0.751414 v -3.15383 q 0,-0.86783 -0.423332,-1.32291 -0.412749,-0.45508 -1.174747,-0.45508 -0.86783,0 -1.365245,0.53975 -0.497415,0.52916 -0.497415,1.47108 v 2.92099 h -0.751415 v -3.15383 q 0,-0.86783 -0.423332,-1.32291 -0.412748,-0.45508 -1.185329,-0.45508 -0.857247,0 -1.365246,0.53975 -0.497415,0.52916 -0.497415,1.47108 v 2.92099 h -0.751414 v -5.56682 h 0.719664 v 1.016 q 0.296333,-0.508 0.825498,-0.78317 0.529165,-0.27516 1.217079,-0.27516 0.698498,0 1.206496,0.29633 0.518582,0.29633 0.772581,0.87841 0.306916,-0.55033 0.878414,-0.85724 0.582081,-0.3175 1.322912,-0.3175 z"
         style="font-style:normal;font-variant:normal;font-weight:bold;font-stretch:normal;font-family:'Montserrat Alternates';-inkscape-font-specification:'Montserrat Alternates';stroke-width:0.264583"
         id="path20" />
      <path
         d="m 93.820659,118.44609 q 0.783165,0 1.418163,0.35983 0.634998,0.34925 0.99483,0.99483 0.359832,0.64558 0.359832,1.47108 0,0.83608 -0.359832,1.48166 -0.359832,0.64558 -0.99483,1.00541 -0.624415,0.34925 -1.418163,0.34925 -0.677331,0 -1.227662,-0.27516 -0.539749,-0.28575 -0.888997,-0.8255 v 3.10091 h -0.751415 v -7.61998 h 0.719665 v 1.10066 q 0.338665,-0.55033 0.888997,-0.84666 0.560915,-0.29633 1.259412,-0.29633 z m -0.05292,4.99532 q 0.582081,0 1.05833,-0.26459 0.476248,-0.27516 0.740831,-0.77258 0.275166,-0.49741 0.275166,-1.13241 0,-0.635 -0.275166,-1.12183 -0.264583,-0.49742 -0.740831,-0.77258 -0.476249,-0.27517 -1.05833,-0.27517 -0.592665,0 -1.068913,0.27517 -0.465666,0.27516 -0.740831,0.77258 -0.264583,0.48683 -0.264583,1.12183 0,0.635 0.264583,1.13241 0.275165,0.49742 0.740831,0.77258 0.476248,0.26459 1.068913,0.26459 z"
         style="font-style:normal;font-variant:normal;font-weight:bold;font-stretch:normal;font-family:'Montserrat Alternates';-inkscape-font-specification:'Montserrat Alternates';stroke-width:0.264583"
         id="path22" />
      <path
         d="m 103.14454,118.48842 v 5.56682 h -0.71966 v -1.016 q -0.29634,0.508 -0.81492,0.79375 -0.51858,0.27516 -1.18533,0.27516 -1.090076,0 -1.725074,-0.60324 -0.624415,-0.61384 -0.624415,-1.78858 v -3.22791 h 0.751414 v 3.15382 q 0,0.87842 0.433916,1.3335 0.433915,0.45508 1.238249,0.45508 0.87841,0 1.38641,-0.52916 0.508,-0.53975 0.508,-1.49225 v -2.92099 z"
         style="font-style:normal;font-variant:normal;font-weight:bold;font-stretch:normal;font-family:'Montserrat Alternates';-inkscape-font-specification:'Montserrat Alternates';stroke-width:0.264583"
         id="path24" />
      <path
         d="m 106.74285,124.10815 q -0.67734,0 -1.30175,-0.1905 -0.61383,-0.20108 -0.96308,-0.49741 l 0.33867,-0.59267 q 0.34924,0.27517 0.87841,0.45509 0.52916,0.16933 1.10066,0.16933 0.762,0 1.12183,-0.23283 0.37042,-0.24342 0.37042,-0.67734 0,-0.30691 -0.20108,-0.47624 -0.20109,-0.17992 -0.508,-0.26459 -0.30692,-0.0952 -0.81492,-0.17991 -0.67733,-0.127 -1.09008,-0.254 -0.41275,-0.13758 -0.70908,-0.45508 -0.28575,-0.3175 -0.28575,-0.87842 0,-0.69849 0.58208,-1.14299 0.58209,-0.4445 1.61925,-0.4445 0.53975,0 1.0795,0.14816 0.53974,0.13759 0.88899,0.37042 l -0.32808,0.60325 q -0.68791,-0.47625 -1.64041,-0.47625 -0.71967,0 -1.09008,0.254 -0.35983,0.254 -0.35983,0.66675 0,0.3175 0.20108,0.50799 0.21167,0.1905 0.51858,0.28575 0.30692,0.0847 0.84667,0.17992 0.66674,0.127 1.06891,0.254 0.40216,0.127 0.68791,0.43391 0.28575,0.30692 0.28575,0.84667 0,0.73025 -0.61383,1.16416 -0.60325,0.42333 -1.68274,0.42333 z"
         style="font-style:normal;font-variant:normal;font-weight:bold;font-stretch:normal;font-family:'Montserrat Alternates';-inkscape-font-specification:'Montserrat Alternates';stroke-width:0.264583"
         id="path26" />
    </g>
  </g>
</svg>
