<?xml version="1.0" encoding="UTF-8" standalone="no"?>
<svg
   xmlns:dc="http://purl.org/dc/elements/1.1/"
   xmlns:cc="http://creativecommons.org/ns#"
   xmlns:rdf="http://www.w3.org/1999/02/22-rdf-syntax-ns#"
   xmlns:svg="http://www.w3.org/2000/svg"
   xmlns="http://www.w3.org/2000/svg"
   xmlns:sodipodi="http://sodipodi.sourceforge.net/DTD/sodipodi-0.dtd"
   xmlns:inkscape="http://www.inkscape.org/namespaces/inkscape"
   width="246.48938"
   height="51.212948"
   viewBox="0 0 65.216985 13.550093"
   version="1.1"
   id="svg8"
   inkscape:version="1.0.1 (3bc2e813f5, 2020-09-07)"
   sodipodi:docname="drawing.svg">
  <defs
     id="defs2">
    <rect
       x="21.860516"
       y="99.341896"
       width="174.6227"
       height="53.590076"
       id="rect1404" />
  </defs>
  <sodipodi:namedview
     id="base"
     pagecolor="#ffffff"
     bordercolor="#666666"
     borderopacity="1.0"
     inkscape:pageopacity="0.0"
     inkscape:pageshadow="2"
     inkscape:zoom="3.114422"
     inkscape:cx="106.45689"
     inkscape:cy="20.203305"
     inkscape:document-units="px"
     inkscape:current-layer="layer1"
     inkscape:document-rotation="0"
     showgrid="false"
     inkscape:window-width="1920"
     inkscape:window-height="1055"
     inkscape:window-x="0"
     inkscape:window-y="25"
     inkscape:window-maximized="1"
     units="px"
     fit-margin-top="0"
     fit-margin-left="0"
     fit-margin-right="0"
     fit-margin-bottom="0">
    <inkscape:grid
       type="xygrid"
       id="grid1453"
       originx="-46.506165"
       originy="-114.40682" />
  </sodipodi:namedview>
  <metadata
     id="metadata5">
    <rdf:RDF>
      <cc:Work
         rdf:about="">
        <dc:format>image/svg+xml</dc:format>
        <dc:type
           rdf:resource="http://purl.org/dc/dcmitype/StillImage" />
        <dc:title></dc:title>
      </cc:Work>
    </rdf:RDF>
  </metadata>
  <g
     inkscape:label="Layer 1"
     inkscape:groupmode="layer"
     id="layer1"
     transform="translate(-46.506164,-114.40682)">
    <g
       id="g851"
       transform="matrix(1.3550093,0,0,1.3550093,5.1783805,102.21174)">
      <path
         d="m 36.9,13.2 c -0.2,-0.2 -1.8,-0.6 -3.1,-0.9 0,1 0,2.1 0.2,2.3 0.2,0.2 1.8,0.6 3.1,0.9 0,-1 0,-2.1 -0.2,-2.3"
         class="st0"
         id="Fill-12" />
      <path
         d="m 38.9,15.8 c -0.6,0 -1.2,-0.1 -1.8,-0.3 0,0.9 -0.1,1.7 -0.2,1.8 -0.3,0.1 -4.5,-0.9 -4.8,-1.2 -0.3,-0.4 -0.3,-3.8 0,-4.1 0.6,0 1.2,0.1 1.8,0.3 0,-0.9 0.1,-1.7 0.2,-1.8 0.3,-0.1 4.5,0.9 4.8,1.2 0.2,0.5 0.2,3.9 0,4.1 M 35.5,9 c -2.8,0 -5,2.3 -5,5 0,2.7 2.3,5 5,5 2.7,0 5,-2.3 5,-5 0,-2.7 -2.2,-5 -5,-5"
         class="st0"
         id="Fill-14" />
    </g>
    <g
       aria-label="olympo"
       id="text1410"
       style="font-style:normal;font-weight:normal;font-size:12.7px;line-height:1.25;font-family:sans-serif;fill:#000000;fill-opacity:1;stroke:none;stroke-width:0.264583">
      <path
         d="m 65.812728,124.69342 q -0.9652,0 -1.7399,-0.4318 -0.7747,-0.4445 -1.2192,-1.2192 -0.4445,-0.7747 -0.4445,-1.7526 0,-0.9779 0.4445,-1.7526 0.4445,-0.7747 1.2192,-1.2065 0.7747,-0.4318 1.7399,-0.4318 0.9652,0 1.7399,0.4318 0.7747,0.4318 1.2065,1.2065 0.4445,0.7747 0.4445,1.7526 0,0.9779 -0.4445,1.7526 -0.4318,0.7747 -1.2065,1.2192 -0.7747,0.4318 -1.7399,0.4318 z m 0,-0.8001 q 0.7112,0 1.27,-0.3175 0.5715,-0.3302 0.889,-0.9271 0.3175,-0.5969 0.3175,-1.3589 0,-0.762 -0.3175,-1.3589 -0.3175,-0.5969 -0.889,-0.9144 -0.5588,-0.3302 -1.27,-0.3302 -0.7112,0 -1.2827,0.3302 -0.5588,0.3175 -0.889,0.9144 -0.3175,0.5969 -0.3175,1.3589 0,0.762 0.3175,1.3589 0.3302,0.5969 0.889,0.9271 0.5715,0.3175 1.2827,0.3175 z"
         style="font-style:normal;font-variant:normal;font-weight:normal;font-stretch:normal;font-size:12.7px;font-family:'Montserrat Alternates';-inkscape-font-specification:'Montserrat Alternates';stroke-width:0.264583"
         id="path1422" />
      <path
         d="m 72.924714,124.69342 q -0.9017,0 -1.397,-0.508 -0.4826,-0.508 -0.4826,-1.4097 v -7.5692 h 0.9017 v 7.493 q 0,0.5969 0.2794,0.9144 0.2794,0.3048 0.8382,0.3048 0.3556,0 0.6096,-0.1143 l 0.0635,0.7493 q -0.3937,0.1397 -0.8128,0.1397 z"
         style="font-style:normal;font-variant:normal;font-weight:normal;font-stretch:normal;font-size:12.7px;font-family:'Montserrat Alternates';-inkscape-font-specification:'Montserrat Alternates';stroke-width:0.264583"
         id="path1424" />
      <path
         d="m 80.989189,117.94972 v 5.8674 q 0,1.7018 -0.7747,2.5146 -0.7747,0.8255 -2.3368,0.8255 -0.8763,0 -1.663699,-0.2794 -0.7747,-0.2667 -1.2573,-0.7493 l 0.4572,-0.6858 q 0.4318,0.4318 1.066799,0.6731 0.635,0.2413 1.3589,0.2413 1.1557,0 1.7018,-0.5969 0.5461,-0.5842 0.5461,-1.8288 v -0.7747 q -0.3556,0.5842 -0.9779,0.9017 -0.6096,0.3175 -1.3843,0.3175 -1.3081,0 -2.070099,-0.7239 -0.7493,-0.7366 -0.7493,-2.1463 v -3.556 h 0.9017 v 3.4671 q 0,1.0541 0.520699,1.6002 0.5207,0.5461 1.4859,0.5461 1.0541,0 1.6637,-0.635 0.6096,-0.6477 0.6096,-1.7907 v -3.1877 z"
         style="font-style:normal;font-variant:normal;font-weight:normal;font-stretch:normal;font-size:12.7px;font-family:'Montserrat Alternates';-inkscape-font-specification:'Montserrat Alternates';stroke-width:0.264583"
         id="path1426" />
      <path
         d="m 91.84767,117.89892 q 1.2573,0 1.9685,0.7239 0.7239,0.7239 0.7239,2.1336 v 3.8735 h -0.9017 v -3.7846 q 0,-1.0414 -0.508,-1.5875 -0.4953,-0.5461 -1.4097,-0.5461 -1.0414,0 -1.6383,0.6477 -0.5969,0.635 -0.5969,1.7653 v 3.5052 h -0.9017 v -3.7846 q 0,-1.0414 -0.508,-1.5875 -0.4953,-0.5461 -1.4224,-0.5461 -1.0287,0 -1.6383,0.6477 -0.5969,0.635 -0.5969,1.7653 v 3.5052 h -0.901699 v -6.6802 h 0.8636 v 1.2192 q 0.355599,-0.6096 0.990599,-0.9398 0.635,-0.3302 1.4605,-0.3302 0.8382,0 1.4478,0.3556 0.6223,0.3556 0.9271,1.0541 0.3683,-0.6604 1.0541,-1.0287 0.6985,-0.381 1.5875,-0.381 z"
         style="font-style:normal;font-variant:normal;font-weight:normal;font-stretch:normal;font-size:12.7px;font-family:'Montserrat Alternates';-inkscape-font-specification:'Montserrat Alternates';stroke-width:0.264583"
         id="path1428" />
      <path
         d="m 100.43286,117.89892 q 0.9398,0 1.7018,0.4318 0.762,0.4191 1.1938,1.1938 0.4318,0.7747 0.4318,1.7653 0,1.0033 -0.4318,1.778 -0.4318,0.7747 -1.1938,1.2065 -0.7493,0.4191 -1.7018,0.4191 -0.812804,0 -1.473204,-0.3302 -0.6477,-0.3429 -1.0668,-0.9906 v 3.7211 h -0.9017 v -9.144 h 0.8636 v 1.3208 q 0.4064,-0.6604 1.0668,-1.016 0.6731,-0.3556 1.511304,-0.3556 z m -0.0635,5.9944 q 0.6985,0 1.27,-0.3175 0.5715,-0.3302 0.889,-0.9271 0.3302,-0.5969 0.3302,-1.3589 0,-0.762 -0.3302,-1.3462 -0.3175,-0.5969 -0.889,-0.9271 -0.5715,-0.3302 -1.27,-0.3302 -0.711204,0 -1.282704,0.3302 -0.5588,0.3302 -0.889,0.9271 -0.3175,0.5842 -0.3175,1.3462 0,0.762 0.3175,1.3589 0.3302,0.5969 0.889,0.9271 0.5715,0.3175 1.282704,0.3175 z"
         style="font-style:normal;font-variant:normal;font-weight:normal;font-stretch:normal;font-size:12.7px;font-family:'Montserrat Alternates';-inkscape-font-specification:'Montserrat Alternates';stroke-width:0.264583"
         id="path1430" />
      <path
         d="m 108.33225,124.69342 q -0.9652,0 -1.7399,-0.4318 -0.7747,-0.4445 -1.2192,-1.2192 -0.4445,-0.7747 -0.4445,-1.7526 0,-0.9779 0.4445,-1.7526 0.4445,-0.7747 1.2192,-1.2065 0.7747,-0.4318 1.7399,-0.4318 0.9652,0 1.7399,0.4318 0.7747,0.4318 1.2065,1.2065 0.4445,0.7747 0.4445,1.7526 0,0.9779 -0.4445,1.7526 -0.4318,0.7747 -1.2065,1.2192 -0.7747,0.4318 -1.7399,0.4318 z m 0,-0.8001 q 0.7112,0 1.27,-0.3175 0.5715,-0.3302 0.889,-0.9271 0.3175,-0.5969 0.3175,-1.3589 0,-0.762 -0.3175,-1.3589 -0.3175,-0.5969 -0.889,-0.9144 -0.5588,-0.3302 -1.27,-0.3302 -0.7112,0 -1.2827,0.3302 -0.5588,0.3175 -0.889,0.9144 -0.3175,0.5969 -0.3175,1.3589 0,0.762 0.3175,1.3589 0.3302,0.5969 0.889,0.9271 0.5715,0.3175 1.2827,0.3175 z"
         style="font-style:normal;font-variant:normal;font-weight:normal;font-stretch:normal;font-size:12.7px;font-family:'Montserrat Alternates';-inkscape-font-specification:'Montserrat Alternates';stroke-width:0.264583"
         id="path1432" />
    </g>
  </g>
</svg>
