<?xml version="1.0" encoding="UTF-8" standalone="no"?>
<svg
   xmlns:dc="http://purl.org/dc/elements/1.1/"
   xmlns:cc="http://creativecommons.org/ns#"
   xmlns:rdf="http://www.w3.org/1999/02/22-rdf-syntax-ns#"
   xmlns:svg="http://www.w3.org/2000/svg"
   xmlns="http://www.w3.org/2000/svg"
   xmlns:sodipodi="http://sodipodi.sourceforge.net/DTD/sodipodi-0.dtd"
   xmlns:inkscape="http://www.inkscape.org/namespaces/inkscape"
   version="1.1"
   id="svg8"
   inkscape:version="1.0.1 (3bc2e813f5, 2020-09-07)"
   sodipodi:docname="logo-white.svg"
   x="0px"
   y="0px"
   viewBox="0 0 263.7902 63.143434"
   xml:space="preserve"
   width="263.79019"
   height="63.143433"><metadata
   id="metadata32"><rdf:RDF><cc:Work
       rdf:about=""><dc:format>image/svg+xml</dc:format><dc:type
         rdf:resource="http://purl.org/dc/dcmitype/StillImage" /><dc:title></dc:title></cc:Work></rdf:RDF></metadata><defs
   id="defs30" />
<style
   type="text/css"
   id="style2">
	.st0{fill:none;}
</style>
<sodipodi:namedview
   bordercolor="#666666"
   borderopacity="1.0"
   fit-margin-bottom="0"
   fit-margin-left="0"
   fit-margin-right="0"
   fit-margin-top="0"
   id="base"
   inkscape:current-layer="g27"
   inkscape:cx="65.471895"
   inkscape:cy="-2.1984015"
   inkscape:document-rotation="0"
   inkscape:document-units="px"
   inkscape:pageopacity="0"
   inkscape:pageshadow="2"
   inkscape:window-height="1055"
   inkscape:window-maximized="1"
   inkscape:window-width="1920"
   inkscape:window-x="0"
   inkscape:window-y="25"
   inkscape:zoom="3.114422"
   pagecolor="#000000"
   showgrid="false"
   units="px">
	<inkscape:grid
   id="grid1453"
   originx="-69.028669"
   originy="-136.80852"
   type="xygrid" />
</sodipodi:namedview>
<g
   id="g851"
   transform="matrix(1.3550093,0,0,1.3550093,-17.344119,79.810048)">
	<path
   id="Fill-12"
   d="m 42.6,-39.3 c -0.9,-0.9 -8.4,-2.8 -14.5,-4.2 0,4.7 0,9.8 0.9,10.7 0.9,0.9 8.4,2.8 14.5,4.2 0,-4.6 0,-9.8 -0.9,-10.7"
   style="fill:#ffffff" />
	<path
   id="Fill-14"
   d="m 51.9,-27.1 c -2.8,0 -5.6,-0.5 -8.4,-1.4 0,4.2 -0.5,7.9 -0.9,8.4 -1.4,0.5 -21,-4.2 -22.4,-5.6 -1.4,-1.9 -1.4,-17.7 0,-19.1 2.8,0 5.6,0.5 8.4,1.4 0,-4.2 0.5,-7.9 0.9,-8.4 1.4,-0.5 21,4.2 22.4,5.6 1,2.2 1,18.1 0,19.1 M 36.1,-58.9 c -13.1,0 -23.3,10.7 -23.3,23.3 0,12.6 10.7,23.3 23.3,23.3 12.6,0 23.3,-10.7 23.3,-23.3 0,-12.6 -10.3,-23.3 -23.3,-23.3"
   style="fill:#ffffff" />
</g>
<g
   id="g27"
   transform="translate(-22.5225,-22.401692)"
   style="fill:#ffffff">
	
	
	<path
   d="m 125,44.6 c -1.7,-0.9 -3.6,-1.4 -5.7,-1.4 -2.1,0 -4,0.5 -5.7,1.4 -1.7,0.9 -3.1,2.3 -4,4 -1,1.7 -1.5,3.6 -1.5,5.8 0,2.1 0.5,4.1 1.5,5.8 1,1.7 2.3,3 4,4 1.7,1 3.6,1.4 5.7,1.4 2.1,0 4,-0.5 5.7,-1.4 1.7,-1 3,-2.3 4,-4 1,-1.7 1.4,-3.6 1.4,-5.8 0,-2.1 -0.5,-4.1 -1.4,-5.8 -0.9,-1.7 -2.3,-3 -4,-4 z m -5.7,17.5 c -1.4,0 -2.7,-0.3 -3.8,-1 -1.1,-0.6 -2,-1.5 -2.6,-2.7 -0.6,-1.2 -1,-2.5 -1,-4 0,-1.5 0.3,-2.9 1,-4 0.6,-1.2 1.5,-2.1 2.6,-2.7 1.1,-0.6 2.4,-1 3.8,-1 1.4,0 2.7,0.3 3.8,1 1.1,0.6 2,1.5 2.6,2.7 0.6,1.2 0.9,2.5 0.9,4 0,1.5 -0.3,2.9 -0.9,4 -0.6,1.2 -1.5,2.1 -2.6,2.7 -1.1,0.7 -2.4,1 -3.8,1 z"
   id="path13"
   style="fill:#ffffff" />
	<path
   d="m 143.9,61.8 c -0.5,0.2 -1,0.3 -1.7,0.3 -1,0 -1.8,-0.3 -2.3,-0.8 -0.5,-0.6 -0.8,-1.4 -0.8,-2.5 V 34.7 h -3.8 V 59 c 0,2 0.6,3.6 1.7,4.8 1.1,1.2 2.7,1.8 4.7,1.8 0.9,0 1.8,-0.2 2.7,-0.5 l 0.4,-0.1 -0.3,-3.4 z"
   id="path15"
   style="fill:#ffffff" />
	<path
   d="m 163.8,53.9 c 0,2.3 -0.6,4 -1.8,5.3 -1.2,1.3 -2.8,1.9 -4.9,1.9 -1.9,0 -3.3,-0.5 -4.3,-1.6 -1,-1 -1.5,-2.6 -1.5,-4.7 V 43.4 h -3.8 v 11.7 c 0,3.1 0.9,5.5 2.5,7.1 1.7,1.6 4,2.4 6.8,2.4 1.7,0 3.2,-0.4 4.6,-1.1 0.9,-0.5 1.7,-1.1 2.3,-1.8 v 0.9 c 0,2.5 -0.5,4.3 -1.6,5.4 -1,1.1 -2.7,1.7 -5,1.7 -1.5,0 -2.8,-0.2 -4.1,-0.7 -1.3,-0.5 -2.3,-1.2 -3.2,-2 l -0.4,-0.4 -2,3 0.3,0.3 c 1.1,1.1 2.5,1.9 4.2,2.5 1.7,0.6 3.5,0.9 5.4,0.9 3.4,0 6,-0.9 7.7,-2.7 1.7,-1.8 2.6,-4.6 2.6,-8.3 v -19 h -3.8 z"
   id="path17"
   style="fill:#ffffff" />
	<path
   d="m 201.3,43.2 c -1.9,0 -3.7,0.4 -5.2,1.2 -1.2,0.7 -2.3,1.6 -3.1,2.7 -0.7,-1.2 -1.6,-2.1 -2.7,-2.7 -1.4,-0.8 -3,-1.2 -4.8,-1.2 -1.8,0 -3.4,0.4 -4.8,1.1 -0.9,0.5 -1.7,1.1 -2.4,1.9 v -2.8 h -3.7 v 22 h 3.8 V 53.9 c 0,-2.2 0.6,-4 1.8,-5.2 1.2,-1.3 2.7,-1.9 4.8,-1.9 1.8,0 3.2,0.5 4.1,1.6 1,1 1.4,2.6 1.4,4.7 v 12.4 h 3.8 V 53.9 c 0,-2.2 0.6,-4 1.7,-5.2 1.2,-1.3 2.7,-1.9 4.8,-1.9 1.8,0 3.1,0.5 4.1,1.6 1,1 1.4,2.6 1.4,4.7 v 12.4 h 3.8 V 52.7 c 0,-3.1 -0.8,-5.5 -2.4,-7.1 -1.4,-1.6 -3.6,-2.4 -6.4,-2.4 z"
   id="path19"
   style="fill:#ffffff" />
	<path
   d="m 233.9,44.6 c -1.7,-0.9 -3.6,-1.4 -5.6,-1.4 -1.8,0 -3.5,0.4 -5,1.2 -1,0.5 -1.9,1.2 -2.6,2.1 V 43.4 H 217 v 29.8 h 3.8 V 62.4 c 0.8,0.9 1.6,1.5 2.7,2.1 1.4,0.7 3.1,1.1 4.8,1.1 2.1,0 4,-0.5 5.6,-1.4 1.7,-0.9 3,-2.3 3.9,-4 0.9,-1.7 1.4,-3.7 1.4,-5.8 0,-2.2 -0.5,-4.1 -1.4,-5.8 -0.9,-1.7 -2.2,-3.1 -3.9,-4 z m -5.8,2.1 c 1.4,0 2.6,0.3 3.8,1 1.1,0.6 2,1.6 2.6,2.7 0.6,1.2 1,2.5 1,4 0,1.5 -0.3,2.9 -1,4 -0.6,1.2 -1.5,2.1 -2.6,2.7 -1.1,0.6 -2.4,1 -3.8,1 -1.4,0 -2.7,-0.3 -3.8,-1 -1.1,-0.6 -2,-1.5 -2.6,-2.7 -0.6,-1.2 -1,-2.5 -1,-4 0,-1.5 0.3,-2.9 1,-4 0.6,-1.2 1.5,-2.1 2.6,-2.7 1.2,-0.7 2.4,-1 3.8,-1 z"
   id="path21"
   style="fill:#ffffff" />
	<path
   d="m 260.2,54.9 c 0,2.3 -0.6,4 -1.8,5.3 -1.2,1.3 -2.8,1.9 -4.9,1.9 -1.9,0 -3.3,-0.5 -4.3,-1.6 -1,-1 -1.5,-2.6 -1.5,-4.7 V 43.4 h -3.8 v 12.7 c 0,3.1 0.9,5.5 2.5,7.1 1.7,1.6 4,2.4 6.8,2.4 1.8,0 3.3,-0.4 4.7,-1.1 0.9,-0.5 1.7,-1.1 2.3,-1.9 v 2.8 h 3.7 v -22 h -3.8 v 11.5 z"
   id="path23"
   style="fill:#ffffff" />
	<path
   d="m 285.1,55.6 c -0.8,-0.8 -1.7,-1.4 -2.8,-1.8 -1,-0.3 -2.4,-0.7 -4.1,-1 -1.3,-0.2 -2.4,-0.5 -3.1,-0.7 -0.7,-0.2 -1.3,-0.5 -1.7,-0.9 -0.4,-0.4 -0.6,-0.9 -0.6,-1.6 0,-0.9 0.4,-1.6 1.2,-2.1 0.8,-0.6 2.1,-0.9 3.8,-0.9 2.3,0 4.3,0.6 5.9,1.7 l 0.5,0.3 1.7,-3.2 -0.4,-0.3 c -0.9,-0.6 -2.1,-1.1 -3.5,-1.5 -1.4,-0.4 -2.8,-0.6 -4.2,-0.6 -2.7,0 -4.9,0.6 -6.4,1.8 -1.6,1.2 -2.4,2.8 -2.4,4.7 0,1.5 0.4,2.8 1.2,3.7 0.8,0.9 1.8,1.5 2.9,1.8 1.1,0.3 2.5,0.7 4.2,1 1.3,0.2 2.3,0.4 3,0.6 0.7,0.2 1.3,0.5 1.7,0.9 0.4,0.3 0.6,0.8 0.6,1.4 0,0.9 -0.4,1.6 -1.2,2.1 -0.8,0.5 -2.2,0.8 -4,0.8 -1.4,0 -2.7,-0.2 -4,-0.6 -1.3,-0.4 -2.3,-1 -3.2,-1.6 l -0.5,-0.4 -1.8,3.1 0.3,0.3 c 0.9,0.8 2.2,1.4 3.8,2 1.6,0.5 3.3,0.8 5.1,0.8 2.8,0 5.1,-0.6 6.7,-1.7 1.7,-1.2 2.5,-2.8 2.5,-4.8 0.1,-1.3 -0.4,-2.5 -1.2,-3.3 z"
   id="path25"
   style="fill:#ffffff" />
</g>
</svg>
